# xmcd
#
# Track frame offsets:
#        150
#        13223
#        28432
#        46717
#        67925
#        88712
#        116086
#        129620
#        145239
#        155709
#        176620
#        191290
#
# Disc length: 2699 seconds
#
# Revision: 18
# Processed by: cddbd v1.5.2PL0 Copyright (c) Steve Scherf et al.
# Submitted via: ExactAudioCopy v0.99pb5
#
DISCID=a60a890c
DTITLE=Various / Guardians Of The Galaxy: Awesome Mix Vol. 1
DYEAR=2014
DGENRE=Soundtrack
TTITLE0=Blue Swede / Hooked On a Feeling
TTITLE1=The Raspberries / Go All the Way
TTITLE2=Norman Greenbaum / Spirit In the Sky
TTITLE3=David Bowie / Moonage Daydream
TTITLE4=Elvin Bishop / Fooled Around and Fell In Love
TTITLE5=10cc / I'm Not In Love
TTITLE6=The Jackson 5 / I Want You Back
TTITLE7=Redbone / Come and Get Your Love
TTITLE8=The Runaways / Cherry Bomb
TTITLE9=Rupert Holmes / Escape (The Piña Colada Song)
TTITLE10=The Five Stairsteps / O-O-H Child
TTITLE11=Marvin Gaye & Tammi Terrell / Ain't No Mountain High Enough
EXTD=
EXTT0=
EXTT1=
EXTT2=
EXTT3=
EXTT4=
EXTT5=
EXTT6=
EXTT7=
EXTT8=
EXTT9=
EXTT10=
EXTT11=
PLAYORDER=
.
